<?xml version="1.0" standalone="no"?>
<!DOCTYPE svg PUBLIC "-//W3C//DTD SVG 20010904//EN"
 "http://www.w3.org/TR/2001/REC-SVG-20010904/DTD/svg10.dtd">
<svg version="1.0" xmlns="http://www.w3.org/2000/svg"
 width="512.000000pt" height="512.000000pt" viewBox="0 0 512.000000 512.000000"
 preserveAspectRatio="xMidYMid meet">
<metadata>
Created by potrace 1.16, written by Peter Selinger 2001-2019
</metadata>
<g transform="translate(0.000000,512.000000) scale(0.100000,-0.100000)"
fill="#000000" stroke="none">
<path d="M480 4880 l0 -80 80 0 80 0 0 80 0 80 -80 0 -80 0 0 -80z"/>
<path d="M1435 4948 c-11 -6 -59 -48 -106 -95 l-86 -84 -128 36 c-138 40 -174
41 -224 6 -36 -26 -64 -94 -57 -136 3 -16 62 -133 130 -260 l124 -230 -32 -36
c-141 -155 -276 -459 -321 -723 -22 -127 -21 -531 1 -607 43 -148 168 -274
315 -320 59 -18 118 -19 1635 -19 866 0 1574 -3 1574 -7 -1 -5 -38 -80 -83
-168 l-82 -160 -214 -91 -214 -92 -28 59 c-35 74 -110 148 -186 186 l-58 28
-765 0 c-748 0 -768 0 -885 -22 -267 -50 -557 -156 -737 -269 -21 -13 -40 -24
-43 -24 -3 0 -5 48 -5 108 0 121 -13 156 -72 192 -31 19 -51 20 -328 20 -277
0 -297 -1 -328 -20 -18 -11 -41 -34 -52 -52 -20 -32 -20 -53 -20 -968 0 -915
0 -936 20 -968 11 -18 34 -41 52 -52 31 -19 51 -20 328 -20 277 0 297 1 328
20 59 36 72 71 72 192 l0 107 1043 4 c931 3 1051 5 1127 20 477 96 836 283
1155 602 274 273 465 606 559 971 36 137 76 366 76 431 0 113 -71 222 -177
270 -48 22 -64 24 -136 20 -45 -2 -92 -8 -104 -12 l-23 -7 0 171 0 171 60 0
c76 0 100 20 100 82 0 43 0 43 -338 380 l-337 338 -44 0 c-42 0 -48 -4 -142
-97 l-99 -97 0 557 c0 544 0 557 -20 577 -19 19 -33 20 -460 20 -427 0 -441
-1 -460 -20 -19 -19 -20 -33 -20 -480 l0 -460 -158 0 -158 0 -43 88 c-24 48
-56 106 -72 129 l-28 43 105 255 c70 172 104 267 104 293 0 73 -71 142 -146
142 -17 0 -71 -20 -120 -44 l-90 -43 -53 73 c-58 79 -96 104 -156 104 -49 0
-80 -18 -150 -89 -33 -34 -62 -61 -65 -61 -4 0 -26 27 -50 60 -23 32 -57 66
-75 75 -38 17 -101 19 -130 3z m105 -234 c50 -66 92 -94 142 -94 57 0 85 15
158 86 l68 66 49 -66 c81 -110 143 -127 256 -70 27 14 51 24 53 21 2 -2 -34
-95 -80 -208 l-84 -204 -101 -3 c-56 -1 -101 0 -101 3 0 3 22 49 49 103 l49
98 -74 37 c-41 20 -76 37 -77 37 -1 0 -34 -63 -72 -140 l-69 -140 -66 1 -65 0
-57 120 -58 119 -72 -36 c-40 -20 -74 -37 -76 -39 -1 -1 14 -37 33 -79 19 -42
35 -79 35 -82 0 -2 -28 -4 -62 -4 l-63 0 -107 199 c-60 109 -108 201 -108 204
0 3 21 0 48 -8 195 -58 206 -56 316 54 45 45 84 81 87 81 4 0 25 -25 49 -56z
m1980 -571 l0 -577 -160 -161 c-155 -157 -160 -163 -160 -203 0 -62 24 -82
100 -82 l60 0 0 -240 0 -240 -240 0 -240 0 0 1040 0 1040 320 0 320 0 0 -577z
m-1382 -90 c11 -16 31 -52 46 -80 l26 -53 -85 0 c-138 0 -125 69 -125 -660 l0
-620 -387 0 c-219 0 -416 5 -452 10 -78 13 -130 39 -181 90 -90 90 -110 196
-93 477 13 202 36 306 104 478 49 124 140 281 196 343 l40 42 446 0 446 0 19
-27z m582 -853 l0 -560 -280 0 -280 0 0 560 0 560 280 0 280 0 0 -560z m1420
295 l215 -215 -435 0 -435 0 215 215 c118 118 217 215 220 215 3 0 102 -97
220 -215z m180 -615 l0 -240 -80 0 -80 0 0 180 c0 239 20 220 -240 220 -260 0
-240 19 -240 -220 l0 -180 -80 0 -80 0 0 240 0 240 400 0 400 0 0 -240z m-320
-120 l0 -120 -80 0 -80 0 0 120 0 120 80 0 80 0 0 -120z m687 -150 c73 -44 76
-88 23 -349 -66 -330 -193 -608 -395 -866 -71 -90 -250 -268 -340 -336 -242
-185 -526 -315 -820 -374 -189 -38 -379 -45 -1317 -45 l-878 0 0 535 0 536 62
40 c108 69 329 174 459 217 299 99 481 115 1289 110 509 -3 558 -4 595 -21 90
-40 145 -123 145 -217 0 -94 -55 -177 -145 -217 -37 -17 -90 -18 -702 -21
l-663 -3 0 -80 0 -80 698 3 697 3 60 29 c65 32 143 103 171 157 10 19 27 61
39 93 l20 59 268 115 268 115 145 289 c158 315 168 328 249 328 22 0 54 -9 72
-20z m-3887 -1410 l0 -880 -240 0 -240 0 0 880 0 880 240 0 240 0 0 -880z"/>
<path d="M1520 3720 l0 -40 -60 0 c-97 0 -100 -6 -100 -200 0 -210 -9 -200
180 -200 l140 0 0 -40 0 -40 -160 0 -160 0 0 -60 c0 -82 18 -100 100 -100 l60
0 0 -40 0 -40 80 0 80 0 0 40 0 40 60 0 c97 0 100 6 100 200 0 210 9 200 -180
200 l-140 0 0 40 0 40 160 0 160 0 0 60 c0 47 -4 64 -20 80 -16 16 -33 20 -80
20 l-60 0 0 40 0 40 -80 0 -80 0 0 -40z"/>
<path d="M480 1720 l0 -120 80 0 80 0 0 120 0 120 -80 0 -80 0 0 -120z"/>
<path d="M4400 4880 l0 -80 -80 0 -80 0 0 -80 0 -80 80 0 80 0 0 -80 0 -80 80
0 80 0 0 80 0 80 80 0 80 0 0 80 0 80 -80 0 -80 0 0 80 0 80 -80 0 -80 0 0
-80z m160 -160 l0 -80 -80 0 -80 0 0 80 0 80 80 0 80 0 0 -80z"/>
<path d="M320 4320 l0 -80 -80 0 -80 0 0 -80 0 -80 80 0 80 0 0 -80 0 -80 80
0 80 0 0 80 0 80 80 0 80 0 0 80 0 80 -80 0 -80 0 0 80 0 80 -80 0 -80 0 0
-80z m160 -160 l0 -80 -80 0 -80 0 0 80 0 80 80 0 80 0 0 -80z"/>
<path d="M4800 4320 l0 -80 80 0 80 0 0 80 0 80 -80 0 -80 0 0 -80z"/>
<path d="M4240 4080 l0 -80 80 0 80 0 0 80 0 80 -80 0 -80 0 0 -80z"/>
<path d="M160 3520 l0 -80 80 0 80 0 0 80 0 80 -80 0 -80 0 0 -80z"/>
</g>
</svg>
