<?xml version="1.0" standalone="no"?>
<!DOCTYPE svg PUBLIC "-//W3C//DTD SVG 20010904//EN"
 "http://www.w3.org/TR/2001/REC-SVG-20010904/DTD/svg10.dtd">
<svg version="1.0" xmlns="http://www.w3.org/2000/svg"
 width="512.000000pt" height="512.000000pt" viewBox="0 0 512.000000 512.000000"
 preserveAspectRatio="xMidYMid meet">
<metadata>
Created by potrace 1.16, written by Peter Selinger 2001-2019
</metadata>
<g transform="translate(0.000000,512.000000) scale(0.100000,-0.100000)"
fill="#000000" stroke="none">
<path d="M52 5113 c-7 -3 -19 -18 -27 -33 -13 -25 -15 -130 -15 -720 0 -761
-2 -737 61 -759 45 -15 694 -15 739 0 43 16 60 58 60 156 l0 78 26 -45 c146
-257 579 -360 879 -208 59 30 115 70 163 117 45 44 52 48 52 28 0 -21 65 -149
100 -196 l32 -44 -1 -231 c-2 -303 12 -370 90 -443 32 -29 107 -63 142 -63
l27 0 0 -436 c0 -283 4 -442 10 -455 11 -19 183 -111 231 -122 20 -5 53 6 135
47 60 29 116 61 124 71 13 15 15 85 18 454 l3 436 50 12 c58 14 117 54 149
100 45 66 49 93 50 370 l0 263 40 52 c22 29 50 75 62 103 l22 50 62 2 c117 2
219 71 272 183 22 46 27 69 26 140 0 150 3 145 -448 595 -403 402 -437 430
-562 478 -58 22 -68 22 -588 25 l-530 3 -292 -126 c-161 -69 -304 -125 -317
-125 -25 0 -25 1 -29 99 -3 89 -6 102 -27 125 l-24 26 -376 -1 c-207 0 -382
-3 -389 -6z m638 -753 l0 -590 -250 0 -250 0 0 590 0 590 250 0 250 0 0 -590z
m1782 581 c39 -5 96 -22 135 -41 61 -28 101 -65 440 -403 368 -366 413 -418
413 -477 0 -62 -55 -128 -120 -143 l-25 -6 -1 87 c-3 177 -68 328 -198 457
-201 199 -474 255 -737 149 l-86 -34 -337 0 -336 0 0 -90 0 -90 486 0 c545 0
533 1 581 -71 51 -78 26 -181 -55 -227 -39 -21 -48 -22 -356 -22 -349 0 -374
-4 -393 -56 -6 -16 -16 -48 -22 -70 -13 -47 -83 -119 -149 -153 -111 -57 -271
-76 -387 -46 -169 44 -272 126 -289 232 -10 57 -41 83 -110 90 l-56 6 0 327 0
327 58 6 c43 4 127 36 347 131 l290 125 420 0 c231 0 450 -4 487 -8z m428
-581 c99 -65 174 -160 210 -265 38 -111 29 -109 -99 19 -89 88 -121 127 -125
151 -4 18 -17 53 -30 79 -27 54 -18 57 44 16z m82 -477 l124 -121 -21 -44
c-12 -23 -27 -53 -35 -64 l-13 -22 -46 27 c-113 66 -243 105 -351 105 -103 0
-180 -20 -309 -81 -91 -43 -95 -44 -109 -27 -24 33 -49 87 -65 142 l-16 52
239 0 c290 0 320 7 410 100 30 32 58 57 62 56 4 0 62 -56 130 -123z m-242
-314 c41 -11 110 -39 153 -62 l77 -41 0 -241 0 -242 -25 -27 -24 -26 -284 0
-284 0 -24 26 c-23 25 -24 31 -27 205 -2 98 -1 179 3 179 3 0 22 -8 43 -19 20
-10 56 -24 79 -31 28 -9 52 -26 73 -52 54 -67 137 -86 215 -48 55 26 87 72 93
131 15 156 -144 251 -274 163 -33 -22 -40 -24 -73 -13 -20 7 -44 18 -55 25
-17 11 -15 14 25 35 56 29 154 57 199 58 20 1 69 -8 110 -20z m-20 -1212 l0
-394 -40 -18 c-39 -17 -41 -17 -80 0 l-40 18 0 394 0 393 80 0 80 0 0 -393z"/>
<path d="M3270 1586 c-316 -57 -593 -109 -615 -116 -72 -24 -149 -85 -183
-146 -8 -14 -40 -5 -288 87 -270 100 -282 103 -359 103 -103 -1 -174 -28 -239
-90 -72 -68 -101 -139 -101 -244 0 -76 4 -93 33 -152 39 -79 93 -131 176 -168
34 -15 450 -168 925 -341 l863 -313 255 86 c202 69 259 85 278 78 24 -9 24
-10 10 -44 -20 -47 -19 -99 3 -125 21 -25 499 -201 547 -201 18 0 42 8 54 18
29 23 491 1287 491 1341 0 26 -7 44 -22 58 -13 11 -137 62 -277 112 -190 69
-261 90 -282 86 -33 -8 -63 -42 -79 -91 -6 -19 -15 -34 -19 -34 -4 0 -130 45
-281 100 -151 55 -283 100 -295 99 -11 0 -279 -47 -595 -103z m943 -208 c92
-33 167 -64 167 -68 0 -6 -249 -695 -275 -762 -6 -16 -10 -16 -42 -3 -20 8
-50 15 -67 15 -17 0 -139 -36 -272 -81 l-241 -82 -868 316 c-674 246 -875 323
-898 344 -61 59 -73 149 -27 213 30 43 101 74 149 66 20 -3 157 -50 306 -104
l270 -99 16 -59 c33 -126 107 -209 221 -250 76 -27 165 -18 653 69 l470 84 -3
34 c-5 70 -23 139 -37 139 -7 0 -229 -38 -493 -85 -537 -94 -526 -94 -593 -26
-24 24 -40 51 -44 75 -15 79 37 164 114 187 22 6 286 55 587 109 l549 96 95
-33 c52 -19 170 -61 263 -95z m572 -28 c87 -32 129 -53 127 -62 -5 -18 -391
-1080 -394 -1084 -2 -1 -72 22 -155 53 l-151 55 13 37 c33 91 374 1028 380
1044 9 21 1 22 180 -43z"/>
</g>
</svg>
