<?xml version="1.0" standalone="no"?>
<!DOCTYPE svg PUBLIC "-//W3C//DTD SVG 20010904//EN"
 "http://www.w3.org/TR/2001/REC-SVG-20010904/DTD/svg10.dtd">
<svg version="1.0" xmlns="http://www.w3.org/2000/svg"
 width="512.000000pt" height="512.000000pt" viewBox="0 0 512.000000 512.000000"
 preserveAspectRatio="xMidYMid meet">
<metadata>
Created by potrace 1.16, written by Peter Selinger 2001-2019
</metadata>
<g transform="translate(0.000000,512.000000) scale(0.100000,-0.100000)"
fill="#000000" stroke="none">
<path d="M2442 5094 c-115 -57 -166 -180 -128 -306 l13 -45 -530 -589 c-291
-324 -549 -611 -573 -637 l-43 -48 -52 15 c-238 71 -465 -103 -447 -343 l4
-59 -245 -4 c-225 -3 -250 -5 -291 -24 -55 -26 -106 -76 -131 -129 -18 -38
-19 -96 -19 -1380 0 -933 3 -1352 11 -1379 14 -52 103 -141 155 -155 55 -15
4733 -15 4788 0 52 14 141 103 155 155 8 27 11 446 11 1379 0 1284 -1 1342
-19 1380 -25 53 -76 103 -131 129 -41 19 -66 21 -291 24 l-245 4 4 59 c18 240
-209 414 -447 343 l-52 -15 -43 48 c-24 26 -282 313 -573 637 l-530 589 13 45
c52 173 -66 332 -246 332 -51 0 -78 -6 -118 -26z m173 -179 c49 -49 16 -125
-55 -125 -44 0 -80 35 -80 77 0 34 42 73 80 73 19 0 40 -9 55 -25z m-55 -309
c25 0 57 3 71 7 24 6 68 -40 598 -629 l572 -636 -23 -52 c-17 -40 -23 -69 -23
-133 l0 -83 -1195 0 -1195 0 0 83 c0 64 -6 93 -23 133 l-23 52 572 636 c530
589 574 635 598 629 14 -4 46 -7 71 -7z m-1440 -1316 c56 -40 84 -128 58 -185
l-11 -25 -144 0 -143 0 -11 28 c-26 67 17 167 85 198 45 21 125 13 166 -16z
m3044 16 c70 -29 114 -130 87 -198 l-11 -28 -143 0 -144 0 -11 25 c-33 72 17
177 98 208 28 10 91 7 124 -7z m750 -435 l26 -24 0 -1311 0 -1310 -22 -23 -21
-23 -2336 0 -2335 0 -23 22 -23 21 0 1312 0 1312 23 20 c12 11 29 23 37 26 8
3 1058 5 2332 4 l2316 -2 26 -24z"/>
<path d="M548 2730 c-82 -14 -150 -69 -187 -150 -19 -40 -21 -65 -21 -247 l0
-203 90 0 90 0 0 188 0 189 26 24 c25 23 31 24 210 27 l184 4 0 89 0 89 -172
-1 c-95 -1 -194 -5 -220 -9z"/>
<path d="M1495 2468 c-45 -24 -45 -22 -45 -445 l0 -403 90 0 90 0 0 170 0 170
125 0 125 0 0 90 0 90 -125 0 -125 0 0 80 0 80 170 0 170 0 0 90 0 90 -227 0
c-146 0 -235 -5 -248 -12z"/>
<path d="M2320 2471 c-78 -25 -132 -72 -166 -146 -23 -48 -24 -60 -24 -271 0
-243 7 -281 60 -346 17 -20 53 -48 82 -62 49 -25 60 -26 203 -26 142 0 154 1
203 26 28 14 65 43 82 64 55 69 60 100 60 344 0 246 -7 275 -73 344 -63 66
-96 76 -257 79 -80 1 -156 -1 -170 -6z m291 -200 l29 -29 0 -195 c0 -192 0
-194 -25 -221 -23 -25 -27 -26 -140 -26 -110 0 -117 1 -140 25 -25 24 -25 25
-25 222 1 254 0 252 168 253 101 0 104 -1 133 -29z"/>
<path d="M3030 2467 c-49 -25 -50 -35 -50 -454 l0 -393 90 0 90 0 0 171 0 171
108 -3 c124 -5 163 -22 200 -87 19 -34 22 -55 22 -146 l0 -106 90 0 90 0 0
120 c0 127 -17 198 -61 254 l-20 26 25 33 c40 52 56 101 56 170 0 114 -70 211
-177 243 -62 19 -426 20 -463 1z m419 -182 c48 -24 56 -81 16 -120 -23 -24
-29 -25 -165 -25 l-140 0 0 80 0 80 130 0 c95 0 139 -4 159 -15z"/>
<path d="M1319 1450 c-60 -10 -96 -30 -141 -77 -50 -51 -69 -102 -69 -179 0
-75 23 -133 72 -183 51 -51 106 -71 212 -78 77 -5 95 -10 114 -29 30 -30 29
-66 -1 -101 l-24 -28 -191 -3 -191 -3 0 -90 0 -91 208 4 c171 3 214 7 247 21
192 85 209 358 28 464 -38 22 -63 28 -145 34 -84 5 -103 10 -124 29 -33 32
-32 79 2 111 25 23 31 24 210 27 l184 4 0 89 0 89 -172 -1 c-95 -1 -194 -5
-219 -9z"/>
<path d="M2165 1449 c-102 -13 -210 -91 -254 -182 -34 -71 -41 -138 -41 -413
l0 -264 90 0 90 0 0 130 0 130 165 0 165 0 0 -130 0 -130 90 0 90 0 0 295 c0
351 -4 372 -99 466 -81 81 -180 114 -296 98z m135 -200 c54 -30 80 -82 80
-158 l0 -61 -166 0 -167 0 6 65 c8 111 69 174 166 175 26 0 58 -8 81 -21z"/>
<path d="M2730 1053 c1 -440 0 -432 54 -453 16 -6 119 -10 247 -10 l219 0 0
90 0 90 -170 0 -170 0 0 345 0 345 -90 0 -90 0 0 -407z"/>
<path d="M3463 1445 c-17 -7 -36 -22 -42 -34 -7 -13 -11 -144 -11 -390 l0
-370 24 -28 24 -28 281 -3 281 -3 0 91 0 90 -215 0 -215 0 0 80 0 80 125 0
125 0 0 90 0 90 -125 0 -125 0 0 85 0 85 215 0 215 0 0 90 0 90 -262 0 c-201
-1 -270 -4 -295 -15z"/>
<path d="M4600 755 c0 -251 16 -235 -235 -235 l-185 0 0 -90 0 -90 203 0 c192
0 205 1 252 24 60 28 97 66 124 126 19 40 21 65 21 248 l0 202 -90 0 -90 0 0
-185z"/>
</g>
</svg>
