<?xml version="1.0" standalone="no"?>
<!DOCTYPE svg PUBLIC "-//W3C//DTD SVG 20010904//EN"
 "http://www.w3.org/TR/2001/REC-SVG-20010904/DTD/svg10.dtd">
<svg version="1.0" xmlns="http://www.w3.org/2000/svg"
 width="512.000000pt" height="512.000000pt" viewBox="0 0 512.000000 512.000000"
 preserveAspectRatio="xMidYMid meet">

<g transform="translate(0.000000,512.000000) scale(0.100000,-0.100000)"
fill="#000000" stroke="none">
<path d="M1920 4520 l0 -280 -400 0 -400 0 0 -920 0 -920 -400 0 -400 0 0
-1080 0 -1080 -160 0 -160 0 0 -80 0 -80 2560 0 2560 0 0 80 0 80 -160 0 -160
0 0 1080 0 1080 -400 0 -400 0 0 920 0 920 -400 0 -400 0 0 280 0 280 -640 0
-640 0 0 -280z m1120 -360 l0 -480 -480 0 -480 0 0 480 0 480 480 0 480 0 0
-480z m-1120 -360 l0 -280 640 0 640 0 0 280 0 280 320 0 320 0 0 -1920 0
-1920 -320 0 -320 0 0 440 0 440 -640 0 -640 0 0 -440 0 -440 -320 0 -320 0 0
1920 0 1920 320 0 320 0 0 -280z m-800 -2560 l0 -1000 -320 0 -320 0 0 1000 0
1000 320 0 320 0 0 -1000z m3520 0 l0 -1000 -320 0 -320 0 0 1000 0 1000 320
0 320 0 0 -1000z m-1600 -640 l0 -360 -480 0 -480 0 0 360 0 360 480 0 480 0
0 -360z"/>
<path d="M2480 4360 l0 -120 -120 0 -120 0 0 -80 0 -80 120 0 120 0 0 -120 0
-120 80 0 80 0 0 120 0 120 120 0 120 0 0 80 0 80 -120 0 -120 0 0 120 0 120
-80 0 -80 0 0 -120z"/>
<path d="M1760 2800 l0 -320 320 0 320 0 0 320 0 320 -320 0 -320 0 0 -320z
m480 0 l0 -160 -160 0 -160 0 0 160 0 160 160 0 160 0 0 -160z"/>
<path d="M2720 2800 l0 -320 320 0 320 0 0 320 0 320 -320 0 -320 0 0 -320z
m480 0 l0 -160 -160 0 -160 0 0 160 0 160 160 0 160 0 0 -160z"/>
<path d="M1760 1840 l0 -320 320 0 320 0 0 320 0 320 -320 0 -320 0 0 -320z
m480 0 l0 -160 -160 0 -160 0 0 160 0 160 160 0 160 0 0 -160z"/>
<path d="M2720 1840 l0 -320 320 0 320 0 0 320 0 320 -320 0 -320 0 0 -320z
m480 0 l0 -160 -160 0 -160 0 0 160 0 160 160 0 160 0 0 -160z"/>
</g>
</svg>
