<?xml version="1.0" standalone="no"?>
<!DOCTYPE svg PUBLIC "-//W3C//DTD SVG 20010904//EN"
 "http://www.w3.org/TR/2001/REC-SVG-20010904/DTD/svg10.dtd">
<svg version="1.0" xmlns="http://www.w3.org/2000/svg"
 width="512.000000pt" height="512.000000pt" viewBox="0 0 512.000000 512.000000"
 preserveAspectRatio="xMidYMid meet">

<g transform="translate(0.000000,512.000000) scale(0.100000,-0.100000)"
fill="#000000" stroke="none">
<path d="M2490 4110 c-2019 -688 -2049 -698 -2082 -721 -15 -11 -40 -41 -55
-67 l-28 -47 -5 -1180 -5 -1180 -91 -5 c-77 -4 -97 -9 -131 -32 -56 -37 -84
-86 -90 -158 -10 -107 52 -204 145 -230 28 -7 389 -9 1157 -8 l1117 3 19 24
c25 30 24 62 -2 95 l-20 26 -1113 0 c-1235 0 -1156 -4 -1156 65 0 18 7 41 16
49 14 14 245 16 2394 16 2149 0 2380 -2 2394 -16 9 -8 16 -31 16 -49 0 -69 79
-65 -1156 -65 l-1113 0 -20 -26 c-26 -33 -27 -65 -2 -95 l19 -24 1117 -3 c768
-1 1129 1 1157 8 52 15 113 71 134 126 24 64 15 154 -23 207 -35 51 -102 87
-160 87 l-43 0 0 383 0 384 -23 21 c-33 31 -80 29 -106 -4 -20 -26 -21 -37
-21 -405 l0 -379 -255 0 -255 0 0 580 0 580 -29 32 -29 33 -649 3 c-462 2
-656 -1 -675 -9 -59 -24 -58 -5 -60 -636 l-3 -578 -252 -3 -253 -2 0 680 0
680 1230 0 1230 0 0 -140 c0 -82 5 -149 11 -164 23 -51 103 -55 128 -7 8 13
11 232 11 673 0 614 -1 655 -18 687 -36 68 -53 71 -364 71 l-278 0 0 100 c0
76 3 100 13 100 7 0 23 9 36 21 34 32 26 87 -16 114 -32 20 -32 21 -33 98 0
62 3 77 15 77 26 0 55 38 55 73 0 34 -18 58 -52 70 -17 6 -18 27 -18 244 0
213 -2 242 -19 273 -20 38 -89 80 -130 80 -14 -1 -726 -239 -1581 -530z m1580
160 l0 -219 -300 -3 c-293 -3 -300 -3 -321 -25 -27 -27 -29 -75 -4 -103 17
-19 30 -20 322 -20 l303 0 0 -80 0 -80 -297 0 c-315 -1 -317 -1 -342 -48 -15
-28 1 -77 30 -92 10 -6 143 -10 313 -10 l296 0 0 -100 0 -100 -925 0 c-1022 0
-965 4 -1005 -63 -19 -31 -20 -59 -20 -1224 l0 -1193 -120 0 -120 0 0 704 0
703 -23 34 c-47 71 -36 70 -577 67 -484 -3 -485 -3 -516 -25 -66 -47 -64 -18
-64 -787 l0 -696 -115 0 -115 0 0 1165 c0 1114 1 1166 18 1183 10 10 140 59
288 109 379 128 3271 1114 3292 1122 1 1 2 -98 2 -219z m660 -1440 l0 -410
-1230 0 -1230 0 0 410 0 410 1230 0 1230 0 0 -410z m-3000 -675 l0 -115 -440
0 -440 0 0 115 0 115 440 0 440 0 0 -115z m1690 -705 l0 -540 -245 0 -245 0 0
540 0 540 245 0 245 0 0 -540z m650 0 l0 -540 -250 0 -250 0 0 540 0 540 250
0 250 0 0 -540z m-2340 330 l0 -110 -440 0 -440 0 0 110 0 110 440 0 440 0 0
-110z m0 -375 l0 -115 -440 0 -440 0 0 115 0 115 440 0 440 0 0 -115z m0 -380
l0 -115 -440 0 -440 0 0 115 0 115 440 0 440 0 0 -115z"/>
<path d="M2665 3086 l-25 -25 0 -250 c0 -247 0 -250 22 -265 29 -21 61 -20 87
2 19 16 21 29 23 162 l3 145 35 -64 c58 -106 81 -107 140 -3 19 34 38 62 42
62 4 0 9 -69 10 -152 l3 -153 28 -9 c21 -8 35 -7 55 5 l27 15 3 244 c1 135 0
254 -2 266 -10 40 -84 53 -124 21 -6 -5 -33 -47 -60 -93 -26 -46 -49 -84 -52
-84 -3 0 -25 36 -49 80 -51 92 -64 105 -108 115 -27 5 -37 2 -58 -19z"/>
<path d="M3334 3096 c-27 -20 -175 -503 -162 -529 12 -23 56 -40 85 -32 16 4
25 17 33 48 6 23 13 48 15 55 3 8 30 12 88 12 l83 0 12 -47 c15 -56 28 -73 53
-73 28 0 68 21 74 39 3 9 -29 127 -70 261 -54 178 -80 250 -96 263 -26 21 -88
22 -115 3z m90 -258 l24 -88 -54 0 c-30 0 -54 4 -54 10 0 14 41 163 48 175 7
11 5 15 36 -97z"/>
<path d="M3700 3101 l-25 -7 -3 -269 c-2 -245 -1 -271 15 -282 23 -18 284 -18
301 -1 7 7 12 26 12 43 0 48 -14 55 -117 55 l-93 0 0 219 c0 163 -3 221 -12
229 -20 15 -51 20 -78 13z"/>
<path d="M4095 3102 c-45 -9 -45 -12 -45 -283 0 -221 2 -260 16 -273 13 -13
42 -16 160 -16 l144 0 12 25 c8 18 9 35 2 53 -9 27 -11 27 -107 30 l-97 3 0
212 c0 156 -3 217 -12 229 -15 18 -44 26 -73 20z"/>
</g>
</svg>
