<?xml version="1.0" standalone="no"?>
<!DOCTYPE svg PUBLIC "-//W3C//DTD SVG 20010904//EN"
 "http://www.w3.org/TR/2001/REC-SVG-20010904/DTD/svg10.dtd">
<svg version="1.0" xmlns="http://www.w3.org/2000/svg"
 width="512.000000pt" height="512.000000pt" viewBox="0 0 512.000000 512.000000"
 preserveAspectRatio="xMidYMid meet">
<metadata>
Created by potrace 1.16, written by Peter Selinger 2001-2019
</metadata>
<g transform="translate(0.000000,512.000000) scale(0.100000,-0.100000)"
fill="#000000" stroke="none">
<path d="M310 4970 l0 -150 150 0 150 0 0 -155 0 -155 -150 0 -150 0 0 -150 0
-150 150 0 150 0 0 -1350 0 -1350 -150 0 -150 0 0 -150 0 -150 450 0 450 0 0
150 0 150 -150 0 -150 0 0 1350 0 1350 150 0 150 0 0 150 0 150 -150 0 -150 0
0 155 0 155 150 0 150 0 0 150 0 150 -450 0 -450 0 0 -150z"/>
<path d="M1510 4970 l0 -150 150 0 150 0 0 -155 0 -155 -150 0 -150 0 0 -1650
0 -1650 1650 0 1650 0 0 1350 0 1350 -600 0 -600 0 0 300 0 300 -150 0 -150 0
0 155 0 155 150 0 150 0 0 150 0 150 -1050 0 -1050 0 0 -150z m1500 -305 l0
-155 -450 0 -450 0 0 155 0 155 450 0 450 0 0 -155z m300 -1805 l0 -1350 -150
0 -150 0 0 300 0 300 -450 0 -450 0 0 -300 0 -300 -150 0 -150 0 0 1350 0
1350 750 0 750 0 0 -1350z m1200 -300 l0 -1050 -450 0 -450 0 0 1050 0 1050
450 0 450 0 0 -1050z m-1800 -900 l0 -150 -150 0 -150 0 0 150 0 150 150 0
150 0 0 -150z"/>
<path d="M2110 3760 l0 -150 150 0 150 0 0 150 0 150 -150 0 -150 0 0 -150z"/>
<path d="M2710 3760 l0 -150 150 0 150 0 0 150 0 150 -150 0 -150 0 0 -150z"/>
<path d="M2110 3160 l0 -150 150 0 150 0 0 150 0 150 -150 0 -150 0 0 -150z"/>
<path d="M2710 3160 l0 -150 150 0 150 0 0 150 0 150 -150 0 -150 0 0 -150z"/>
<path d="M2110 2560 l0 -150 150 0 150 0 0 150 0 150 -150 0 -150 0 0 -150z"/>
<path d="M2710 2560 l0 -150 150 0 150 0 0 150 0 150 -150 0 -150 0 0 -150z"/>
<path d="M3910 3160 l0 -150 150 0 150 0 0 150 0 150 -150 0 -150 0 0 -150z"/>
<path d="M3910 2560 l0 -150 150 0 150 0 0 150 0 150 -150 0 -150 0 0 -150z"/>
<path d="M3910 1960 l0 -150 150 0 150 0 0 150 0 150 -150 0 -150 0 0 -150z"/>
<path d="M1510 455 l0 -455 150 0 150 0 0 155 0 155 750 0 750 0 0 -155 0
-155 150 0 150 0 0 155 0 155 450 0 450 0 0 -155 0 -155 150 0 150 0 0 455 0
455 -150 0 -150 0 0 -150 0 -150 -450 0 -450 0 0 150 0 150 -150 0 -150 0 0
-150 0 -150 -750 0 -750 0 0 150 0 150 -150 0 -150 0 0 -455z"/>
</g>
</svg>
