<?xml version="1.0" standalone="no"?>
<!DOCTYPE svg PUBLIC "-//W3C//DTD SVG 20010904//EN"
 "http://www.w3.org/TR/2001/REC-SVG-20010904/DTD/svg10.dtd">
<svg version="1.0" xmlns="http://www.w3.org/2000/svg"
 width="512.000000pt" height="512.000000pt" viewBox="0 0 512.000000 512.000000"
 preserveAspectRatio="xMidYMid meet">
<metadata>
Created by potrace 1.16, written by Peter Selinger 2001-2019
</metadata>
<g transform="translate(0.000000,512.000000) scale(0.100000,-0.100000)"
fill="#000000" stroke="none">
<path d="M1970 5074 c-19 -2 -78 -11 -130 -20 -811 -130 -1481 -735 -1690
-1528 -57 -216 -64 -280 -64 -546 0 -192 3 -266 17 -340 87 -465 274 -828 591
-1146 346 -345 766 -548 1255 -604 137 -16 454 -8 581 15 287 52 564 159 786
304 l89 58 585 -582 c464 -463 596 -589 640 -611 49 -26 65 -29 150 -29 82 0
103 4 150 26 72 34 126 89 163 167 27 59 29 69 25 155 -3 77 -8 100 -31 143
-20 36 -195 217 -611 633 l-584 584 60 91 c118 183 217 414 272 637 73 303 76
674 6 975 -174 746 -754 1353 -1482 1549 -196 53 -300 67 -528 70 -118 2 -231
1 -250 -1z m376 -178 c271 -16 622 -134 869 -293 117 -76 226 -163 321 -258
297 -297 478 -651 550 -1080 21 -125 24 -404 5 -535 -130 -916 -863 -1604
-1779 -1669 -691 -49 -1355 284 -1745 874 -309 469 -391 1084 -217 1630 218
681 797 1186 1505 1311 97 17 295 32 360 28 22 -2 81 -6 131 -8z m1482 -3563
l-113 -113 -81 81 -81 80 111 113 111 112 83 -80 82 -81 -112 -112z m357 -353
l-115 -115 -112 113 -113 112 115 115 115 115 112 -112 113 -113 -115 -115z
m756 -562 c18 -69 -19 -151 -83 -184 -36 -19 -107 -20 -140 -4 -12 7 -134 123
-270 258 l-248 247 112 112 113 113 253 -252 c202 -202 254 -261 263 -290z"/>
<path d="M2019 4740 c-201 -18 -443 -87 -622 -177 -563 -281 -941 -847 -975
-1461 -19 -326 35 -612 168 -890 232 -486 703 -855 1229 -962 470 -96 951 -3
1342 258 811 543 1033 1639 495 2447 -365 547 -982 843 -1637 785z m479 -199
c639 -141 1105 -610 1243 -1251 31 -140 34 -455 6 -595 -27 -135 -91 -317
-155 -440 l-57 -110 -213 -3 -212 -2 0 515 c0 283 2 515 3 515 2 0 18 -7 36
-16 84 -42 169 55 112 128 -28 35 -1031 784 -1060 791 -13 3 -34 2 -47 -3 -27
-11 -1021 -753 -1046 -782 -25 -28 -24 -92 2 -118 29 -29 67 -35 106 -17 l34
17 0 -515 0 -515 -209 0 -208 0 -61 118 c-102 199 -151 368 -173 602 -37 391
95 809 359 1133 163 201 415 382 662 476 83 32 227 70 326 86 129 21 428 13
552 -14z m66 -953 l365 -273 1 -587 0 -588 -285 0 -285 0 0 373 c-1 204 -5
392 -9 416 -11 57 -37 91 -91 119 -42 21 -56 22 -245 22 -214 0 -254 -8 -298
-58 -43 -48 -46 -78 -47 -484 l0 -388 -120 0 -120 0 0 585 0 585 373 280 c204
154 377 278 384 275 6 -2 176 -127 377 -277z m-384 -1073 l0 -375 -165 0 -165
0 0 375 0 375 165 0 165 0 0 -375z m1201 -572 c-37 -52 -166 -171 -260 -242
-102 -76 -284 -174 -399 -215 -408 -145 -837 -123 -1227 64 -176 85 -373 231
-485 360 l-52 60 1222 0 1221 0 -20 -27z"/>
</g>
</svg>
