<?xml version="1.0" standalone="no"?>
<!DOCTYPE svg PUBLIC "-//W3C//DTD SVG 20010904//EN"
 "http://www.w3.org/TR/2001/REC-SVG-20010904/DTD/svg10.dtd">
<svg version="1.0" xmlns="http://www.w3.org/2000/svg"
 width="512.000000pt" height="512.000000pt" viewBox="0 0 512.000000 512.000000"
 preserveAspectRatio="xMidYMid meet">
<metadata>
Created by potrace 1.16, written by Peter Selinger 2001-2019
</metadata>
<g transform="translate(0.000000,512.000000) scale(0.100000,-0.100000)"
fill="#000000" stroke="none">
<path d="M2305 5113 c-671 -72 -1279 -393 -1707 -903 -301 -358 -488 -764
-571 -1240 -19 -109 -21 -162 -21 -410 0 -248 2 -301 21 -410 94 -540 320
-987 693 -1374 383 -398 866 -650 1430 -749 109 -19 162 -21 410 -21 313 0
407 10 653 73 882 228 1600 946 1828 1828 63 246 73 340 73 653 0 313 -10 407
-73 653 -228 881 -946 1600 -1828 1828 -227 58 -334 71 -613 74 -140 2 -273 1
-295 -2z m573 -343 c887 -130 1611 -776 1842 -1642 95 -357 95 -779 0 -1136
-207 -776 -816 -1385 -1592 -1592 -357 -95 -779 -95 -1136 0 -547 146 -1033
505 -1326 980 -228 367 -336 748 -336 1180 0 369 74 681 236 1000 332 654 947
1101 1667 1210 174 26 468 26 645 0z"/>
<path d="M1672 3820 c-95 -58 -99 -216 -5 -277 24 -16 64 -19 418 -24 372 -5
393 -6 455 -28 83 -29 146 -69 203 -130 38 -40 97 -136 97 -156 0 -3 -255 -5
-567 -5 -549 0 -569 -1 -601 -20 -48 -30 -72 -75 -72 -140 0 -65 24 -110 72
-140 32 -19 52 -20 601 -20 312 0 567 -2 567 -5 0 -20 -59 -116 -97 -156 -57
-61 -120 -101 -203 -130 -62 -22 -83 -23 -455 -28 -433 -7 -423 -5 -465 -74
-22 -36 -27 -124 -9 -160 16 -31 1318 -1335 1351 -1353 15 -8 51 -14 80 -14
97 0 158 61 158 158 0 29 -5 63 -11 75 -6 12 -241 253 -523 535 l-511 512 181
0 c147 0 196 4 260 20 270 67 493 280 574 548 l22 72 111 0 c126 0 161 13 197
72 27 45 27 131 0 176 -36 59 -71 72 -197 72 l-111 0 -27 85 c-15 46 -47 117
-71 156 -24 39 -44 73 -44 75 0 2 82 4 183 4 164 0 185 2 215 20 48 30 72 75
72 140 0 65 -24 110 -72 140 -32 19 -52 20 -888 20 -836 0 -856 -1 -888 -20z"/>
</g>
</svg>
