<?xml version="1.0" standalone="no"?>
<!DOCTYPE svg PUBLIC "-//W3C//DTD SVG 20010904//EN"
 "http://www.w3.org/TR/2001/REC-SVG-20010904/DTD/svg10.dtd">
<svg version="1.0" xmlns="http://www.w3.org/2000/svg"
 width="512.000000pt" height="512.000000pt" viewBox="0 0 512.000000 512.000000"
 preserveAspectRatio="xMidYMid meet">
<metadata>
Created by potrace 1.16, written by Peter Selinger 2001-2019
</metadata>
<g transform="translate(0.000000,512.000000) scale(0.100000,-0.100000)"
fill="#000000" stroke="none">
<path d="M272 4894 c-128 -125 -239 -239 -247 -255 -8 -15 -15 -53 -15 -84 0
-51 3 -59 38 -97 35 -37 45 -42 94 -46 70 -5 90 5 201 108 l87 82 0 -1930 0
-1930 -157 -4 c-175 -4 -206 -14 -244 -74 -26 -42 -26 -129 0 -168 40 -60 60
-66 239 -66 l162 0 0 -162 c0 -143 2 -167 19 -192 30 -46 70 -66 129 -66 64 0
105 21 135 70 20 31 22 52 26 193 l3 157 1936 0 1936 0 -96 -98 c-76 -76 -98
-105 -103 -135 -14 -74 15 -141 75 -172 37 -19 113 -19 148 -1 15 8 129 117
255 243 l227 229 0 77 0 78 -227 234 c-124 129 -241 241 -259 250 -104 49
-224 -21 -224 -132 0 -64 14 -90 102 -180 l82 -83 -1927 0 -1927 0 0 1932 0
1932 93 -91 c72 -71 101 -93 130 -98 74 -14 141 15 172 75 19 37 19 113 1 148
-8 15 -117 129 -243 255 l-229 227 -80 0 -80 0 -232 -226z"/>
<path d="M2840 4749 c-40 -15 -1552 -1230 -1577 -1268 -46 -68 -22 -167 49
-211 30 -18 51 -20 206 -20 l172 0 0 -847 c0 -829 1 -849 20 -881 11 -18 34
-41 52 -52 32 -20 53 -20 1134 -20 l1101 0 33 22 c18 13 41 39 51 58 18 33 19
76 19 877 l0 843 174 0 c163 0 175 1 206 22 68 47 89 147 46 213 -9 14 -365
304 -789 644 -831 664 -813 651 -897 620z m593 -779 l506 -405 -519 -3 c-285
-1 -755 -1 -1045 0 l-526 3 521 417 c455 364 524 416 539 405 10 -6 245 -194
524 -417z m357 -1465 l0 -745 -220 0 -219 0 -3 399 c-3 453 0 433 -89 479 -44
23 -47 23 -381 20 -324 -3 -338 -4 -365 -24 -15 -11 -38 -36 -50 -54 -23 -33
-23 -35 -23 -426 l0 -394 -220 0 -220 0 0 745 0 745 895 0 895 0 0 -745z
m-750 -450 l0 -295 -145 0 -145 0 0 295 0 295 145 0 145 0 0 -295z"/>
</g>
</svg>
