<?xml version="1.0" standalone="no"?>
<!DOCTYPE svg PUBLIC "-//W3C//DTD SVG 20010904//EN"
 "http://www.w3.org/TR/2001/REC-SVG-20010904/DTD/svg10.dtd">
<svg version="1.0" xmlns="http://www.w3.org/2000/svg"
 width="512.000000pt" height="512.000000pt" viewBox="0 0 512.000000 512.000000"
 preserveAspectRatio="xMidYMid meet">

<g transform="translate(0.000000,512.000000) scale(0.100000,-0.100000)"
fill="#000000" stroke="none">
<path d="M2485 5027 c-68 -23 -86 -36 -227 -174 l-138 -133 -847 0 -848 0
-192 -480 -191 -480 99 0 99 0 0 -320 0 -320 -80 0 -80 0 0 -240 0 -240 80 0
80 0 0 -320 0 -320 -80 0 -80 0 0 -240 0 -240 80 0 80 0 0 -320 0 -320 -80 0
-80 0 0 -400 0 -400 2480 0 2480 0 0 400 0 400 -80 0 -80 0 0 320 0 320 80 0
80 0 0 240 0 240 -80 0 -80 0 0 320 0 320 80 0 80 0 0 240 0 240 -80 0 -80 0
0 320 0 320 99 0 99 0 -191 480 -192 480 -847 0 -847 0 -140 136 c-88 84 -157
142 -184 154 -58 26 -142 33 -192 17z m118 -158 c12 -7 67 -55 122 -108 103
-99 263 -245 350 -318 l50 -42 -565 -1 c-480 0 -562 2 -550 14 8 7 53 46 100
86 47 39 152 135 234 213 82 78 158 147 170 154 27 16 61 16 89 2z m-678 -318
c-6 -4 -64 -51 -131 -104 l-121 -96 33 -198 c19 -109 34 -206 34 -215 0 -17
-41 -18 -731 -18 -581 0 -730 3 -726 13 3 6 60 150 128 320 l123 307 700 0
c393 0 696 -4 691 -9z m2784 -298 c68 -170 125 -314 128 -320 4 -10 -145 -13
-726 -13 -690 0 -731 1 -731 18 0 9 15 106 34 215 l33 199 -96 76 c-53 41
-111 88 -129 104 l-33 28 699 0 698 0 123 -307z m-2469 -93 l0 -80 -179 0
-179 0 -11 63 c-19 107 -37 97 179 97 l190 0 0 -80z m480 0 l0 -80 -160 0
-160 0 0 80 0 80 160 0 160 0 0 -80z m540 63 c0 -9 -5 -45 -11 -80 l-11 -63
-179 0 -179 0 0 80 0 80 190 0 c171 0 190 -2 190 -17z m-1020 -383 l0 -80
-154 0 -153 0 -7 51 c-4 29 -10 65 -13 80 l-5 29 166 0 166 0 0 -80z m480 0
l0 -80 -160 0 -160 0 0 80 0 80 160 0 160 0 0 -80z m487 51 c-3 -15 -9 -51
-13 -80 l-7 -51 -153 0 -154 0 0 80 0 80 166 0 167 0 -6 -29z m-1432 -153 c30
-134 65 -402 65 -502 l0 -116 -80 0 -80 0 0 240 0 240 -240 0 -240 0 0 -240 0
-240 -80 0 -80 0 0 240 0 240 -240 0 -240 0 0 -240 0 -240 -80 0 -80 0 0 320
0 320 685 0 685 0 5 -22z m2945 -298 l0 -320 -80 0 -80 0 0 240 0 240 -240 0
-240 0 0 -240 0 -240 -80 0 -80 0 0 240 0 240 -240 0 -240 0 0 -240 0 -240
-80 0 -80 0 0 116 c0 100 35 368 65 502 l5 22 685 0 685 0 0 -320z m-2480 80
l0 -80 -124 0 c-139 0 -129 -6 -141 80 -4 25 -9 53 -11 63 -5 16 6 17 135 17
l141 0 0 -80z m480 0 l0 -80 -160 0 -160 0 0 80 0 80 160 0 160 0 0 -80z m436
63 c-2 -10 -7 -38 -11 -63 -12 -86 -2 -80 -141 -80 l-124 0 0 80 0 80 141 0
c129 0 140 -1 135 -17z m-2276 -303 l0 -160 -80 0 -80 0 0 160 0 160 80 0 80
0 0 -160z m640 0 l0 -160 -80 0 -80 0 0 160 0 160 80 0 80 0 0 -160z m2240 0
l0 -160 -80 0 -80 0 0 160 0 160 80 0 80 0 0 -160z m640 0 l0 -160 -80 0 -80
0 0 160 0 160 80 0 80 0 0 -160z m-1280 -1520 l0 -1520 -79 0 -80 0 -3 408 -3
407 -32 67 c-44 93 -100 151 -191 196 -72 35 -81 37 -172 37 -91 0 -100 -2
-172 -37 -91 -45 -147 -103 -191 -196 l-32 -67 -3 -408 -3 -407 -80 0 -79 0 0
1520 0 1520 560 0 560 0 0 -1520z m-1280 1120 l0 -80 -800 0 -800 0 0 80 0 80
800 0 800 0 0 -80z m3040 0 l0 -80 -800 0 -800 0 0 80 0 80 800 0 800 0 0 -80z
m-3040 -560 l0 -320 -80 0 -80 0 0 240 0 240 -240 0 -240 0 0 -240 0 -240 -80
0 -80 0 0 240 0 240 -240 0 -240 0 0 -240 0 -240 -80 0 -80 0 0 320 0 320 720
0 720 0 0 -320z m2880 0 l0 -320 -80 0 -80 0 0 240 0 240 -240 0 -240 0 0
-240 0 -240 -80 0 -80 0 0 240 0 240 -240 0 -240 0 0 -240 0 -240 -80 0 -80 0
0 320 0 320 720 0 720 0 0 -320z m-3840 -160 l0 -160 -80 0 -80 0 0 160 0 160
80 0 80 0 0 -160z m640 0 l0 -160 -80 0 -80 0 0 160 0 160 80 0 80 0 0 -160z
m2240 0 l0 -160 -80 0 -80 0 0 160 0 160 80 0 80 0 0 -160z m640 0 l0 -160
-80 0 -80 0 0 160 0 160 80 0 80 0 0 -160z m-2560 -400 l0 -80 -800 0 -800 0
0 80 0 80 800 0 800 0 0 -80z m3040 0 l0 -80 -800 0 -800 0 0 80 0 80 800 0
800 0 0 -80z m-3040 -560 l0 -320 -80 0 -80 0 0 240 0 240 -240 0 -240 0 0
-240 0 -240 -80 0 -80 0 0 240 0 240 -240 0 -240 0 0 -240 0 -240 -80 0 -80 0
0 320 0 320 720 0 720 0 0 -320z m2880 0 l0 -320 -80 0 -80 0 0 240 0 240
-240 0 -240 0 0 -240 0 -240 -80 0 -80 0 0 240 0 240 -240 0 -240 0 0 -240 0
-240 -80 0 -80 0 0 320 0 320 720 0 720 0 0 -320z m-3840 -160 l0 -160 -80 0
-80 0 0 160 0 160 80 0 80 0 0 -160z m640 0 l0 -160 -80 0 -80 0 0 160 0 160
80 0 80 0 0 -160z m1114 148 c55 -16 138 -99 154 -154 8 -29 12 -151 12 -418
l0 -376 -240 0 -240 0 0 376 c0 267 4 389 12 418 15 51 99 137 148 153 48 15
105 15 154 1z m1126 -148 l0 -160 -80 0 -80 0 0 160 0 160 80 0 80 0 0 -160z
m640 0 l0 -160 -80 0 -80 0 0 160 0 160 80 0 80 0 0 -160z m-2560 -560 l0
-240 -800 0 -800 0 0 240 0 240 800 0 800 0 0 -240z m3040 0 l0 -240 -800 0
-800 0 0 240 0 240 800 0 800 0 0 -240z"/>
<path d="M2160 2800 l0 -320 400 0 400 0 0 320 0 320 -400 0 -400 0 0 -320z
m640 0 l0 -160 -240 0 -240 0 0 160 0 160 240 0 240 0 0 -160z"/>
<path d="M2160 2000 l0 -320 400 0 400 0 0 320 0 320 -400 0 -400 0 0 -320z
m640 0 l0 -160 -240 0 -240 0 0 160 0 160 240 0 240 0 0 -160z"/>
</g>
</svg>
